<?xml version="1.0" standalone="no"?>
<!DOCTYPE svg PUBLIC "-//W3C//DTD SVG 20010904//EN"
 "http://www.w3.org/TR/2001/REC-SVG-20010904/DTD/svg10.dtd">
<svg version="1.0" xmlns="http://www.w3.org/2000/svg"
 width="500.000000pt" height="500.000000pt" viewBox="0 0 500.000000 500.000000"
 preserveAspectRatio="xMidYMid meet">

<g transform="translate(0.000000,500.000000) scale(0.100000,-0.100000)"
fill="#000000" stroke="none">
<path d="M2337 3964 c-174 -27 -473 -149 -568 -232 -24 -21 -71 -57 -104 -79
-57 -39 -204 -189 -271 -278 -42 -56 -116 -185 -159 -279 -75 -161 -112 -386
-101 -606 9 -189 -13 -170 197 -170 l179 0 0 236 c0 242 2 257 43 302 34 37
133 22 151 -23 23 -61 -11 -124 -79 -151 l-45 -17 0 -173 0 -174 79 0 79 0 7
269 c8 286 3 355 -26 412 -15 29 -16 43 -8 72 29 105 188 99 215 -8 10 -40
-25 -97 -73 -120 l-42 -20 -3 -303 c-2 -234 0 -306 10 -314 15 -13 16 -50 1
-65 -14 -14 -15 -922 -2 -933 9 -8 143 -80 149 -80 9 0 4 999 -6 1005 -13 8
-13 58 0 71 14 14 14 837 0 863 -24 46 0 119 47 140 13 6 44 11 69 11 138 0
141 -201 4 -219 l-45 -6 -3 -381 c-4 -329 -2 -385 11 -411 14 -26 14 -33 1
-58 -12 -23 -14 -113 -14 -539 l0 -512 63 -22 c34 -12 68 -22 75 -22 9 0 12
176 12 845 l0 845 34 38 34 37 -31 26 c-30 25 -31 27 -19 65 6 22 25 53 42 69
27 26 39 30 86 30 50 0 59 -3 85 -33 36 -40 38 -87 7 -128 -30 -39 -46 -50
-88 -63 -21 -6 -43 -23 -56 -43 -22 -33 -22 -35 -25 -873 l-4 -840 60 -13 c33
-6 111 -16 174 -20 477 -35 921 158 1218 530 53 67 64 85 41 72 -8 -4 -10 -3
-5 2 5 5 14 9 20 9 7 0 12 11 12 25 0 18 5 24 17 22 9 -1 19 2 23 8 4 7 -119
10 -383 10 -464 0 -531 4 -564 35 -13 12 -43 35 -66 50 -23 15 -42 29 -42 32
0 8 56 -11 73 -25 24 -21 230 -30 652 -30 230 0 320 3 350 13 22 7 34 13 26
14 -11 1 -10 5 5 17 10 8 14 13 7 10 -7 -4 -11 1 -10 13 1 16 4 18 16 8 11 -9
13 -9 8 0 -4 7 0 13 10 15 10 2 -198 7 -462 10 -408 6 -482 4 -496 -8 -19 -17
-51 -18 -67 -2 -17 17 -15 74 4 92 19 20 70 21 81 2 7 -12 85 -16 454 -22 245
-4 459 -3 475 1 l29 8 -25 7 c-14 5 -45 8 -69 9 -36 1 -42 3 -32 15 16 19 -1
28 -31 18 -12 -5 -34 -6 -48 -2 -18 5 -3 9 50 14 168 17 153 24 -55 25 -115 1
-221 4 -234 8 -19 5 -22 3 -16 -8 8 -12 6 -12 -8 0 -20 16 -22 42 -5 59 8 8
49 13 113 13 74 1 90 4 60 9 -22 4 -34 8 -27 9 10 1 9 5 -3 17 -11 12 -13 20
-6 27 17 17 14 50 -4 44 -8 -4 -17 -2 -20 3 -4 6 1 10 9 10 23 0 20 17 -4 25
-11 3 -20 10 -20 15 0 4 -11 11 -25 14 -20 5 -25 13 -25 39 l-1 32 -22 -27
c-12 -15 -29 -35 -37 -45 -8 -11 -12 -14 -8 -8 4 7 -6 9 -33 7 -100 -10 -158
73 -118 170 15 37 28 53 47 54 6 1 21 2 32 3 19 1 20 8 18 99 -1 53 -3 77 -5
52 -5 -64 -12 -92 -23 -85 -5 3 -12 0 -15 -6 -9 -14 -38 27 -32 44 3 7 6 5 6
-5 1 -12 9 -18 24 -18 21 0 21 1 -7 25 -16 14 -33 25 -38 25 -4 0 -8 9 -8 20
0 27 -18 25 -22 -2 -2 -13 -5 19 -6 71 -1 52 -7 100 -12 106 -6 7 -8 26 -5 42
4 22 3 24 -4 8 -5 -11 -9 -150 -10 -308 -1 -248 1 -296 16 -336 14 -40 15 -53
5 -77 -33 -78 -148 -102 -203 -42 -65 72 -12 197 84 198 l27 0 -1 538 c-1 295
-4 526 -6 512 -3 -14 -9 -29 -15 -35 -6 -7 -7 -1 -3 18 5 17 3 27 -4 27 -6 0
-11 -6 -11 -14 0 -8 -5 -18 -11 -22 -8 -5 -10 1 -5 19 7 29 -11 48 -25 26 -5
-8 -6 7 -4 36 4 44 3 47 -7 25 -11 -25 -11 -25 -15 -2 -3 12 -9 22 -15 22 -6
0 -8 14 -4 38 4 26 3 31 -3 17 -6 -13 -9 40 -10 144 0 90 -3 166 -6 169 -3 3
-5 -321 -5 -719 0 -705 -1 -725 -20 -757 -39 -64 -121 -91 -166 -54 -40 32
-57 69 -50 107 9 48 59 103 100 110 22 5 38 16 50 36 16 28 18 63 15 442 -3
344 -12 621 -18 515 0 -16 -6 -28 -12 -28 -6 0 -9 7 -5 15 3 8 1 15 -4 15 -5
0 -7 7 -4 15 4 8 1 15 -6 15 -7 0 -10 7 -6 15 4 10 -1 15 -15 15 -18 0 -21 5
-17 30 3 17 1 33 -4 36 -5 3 -6 10 -3 15 4 5 -5 9 -18 9 -24 0 -25 3 -20 43 2
23 6 50 8 60 3 15 -1 18 -17 14 -17 -5 -19 -2 -15 19 3 20 0 24 -18 24 -12 0
-28 7 -35 15 -7 8 -21 15 -32 15 -17 0 -18 3 -8 15 10 12 10 15 -3 15 -8 0
-18 -6 -20 -12 -3 -7 -6 -4 -7 7 l-1 20 -9 -20 c-8 -18 -9 -17 -9 7 -1 17 5
28 17 31 42 11 -212 4 -291 -9z m174 -245 c95 -24 196 -125 238 -236 47 -121
53 -396 11 -491 -12 -26 -20 -67 -20 -96 0 -29 -6 -59 -12 -68 -17 -21 -87
-58 -111 -58 -53 0 -107 61 -107 122 0 60 72 122 133 116 29 -3 34 1 52 37 42
84 28 322 -25 432 -40 85 -100 148 -164 172 -47 17 -81 20 -297 22 -134 1
-252 -1 -261 -5 -39 -17 -80 41 -44 61 20 11 562 4 607 -8z m-410 -159 c253 0
315 -2 344 -15 25 -10 35 -20 33 -31 -3 -15 -34 -16 -337 -15 -332 2 -334 2
-357 -20 -20 -19 -27 -21 -49 -11 -49 23 -19 110 33 97 14 -3 163 -6 333 -5z
m999 -245 c16 -5 18 -18 17 -118 0 -97 -1 -106 -10 -69 -10 44 -27 57 -27 20
0 -17 -3 -19 -12 -10 -8 8 -8 15 1 26 16 19 12 76 -7 98 -13 15 -13 18 2 24
19 7 22 30 4 36 -8 3 -9 11 -3 24 8 18 9 18 12 -3 3 -12 12 -25 23 -28z m20
19 c0 -8 -4 -14 -10 -14 -5 0 -10 9 -10 21 0 11 5 17 10 14 6 -3 10 -13 10
-21z m-62 -95 c10 -13 10 -19 -1 -28 -11 -8 -14 -5 -14 19 0 17 1 29 1 28 1
-2 7 -10 14 -19z m59 -181 c-3 -8 -6 -5 -6 6 -1 11 2 17 5 13 3 -3 4 -12 1
-19z m-517 -411 c34 -16 63 -79 55 -116 -3 -15 -20 -41 -36 -57 -25 -24 -39
-29 -82 -30 -43 0 -54 -4 -71 -28 -19 -25 -21 -45 -24 -197 -6 -262 28 -371
140 -456 97 -74 214 -97 477 -91 147 3 165 1 175 -14 8 -13 8 -23 0 -35 -10
-16 -32 -17 -229 -14 -146 2 -236 8 -274 17 -90 23 -176 72 -234 133 -90 94
-117 198 -116 441 0 172 9 231 38 270 19 27 20 33 9 74 -10 37 -9 47 3 62 40
49 116 68 169 41z m739 -58 c-22 -13 -31 -11 -17 5 7 8 17 12 22 9 4 -3 2 -9
-5 -14z m-643 -684 c18 -13 18 -14 -4 -8 -12 3 -25 9 -28 14 -8 14 10 11 32
-6z m-196 -301 c14 -12 54 -37 90 -55 l65 -34 240 -3 c233 -3 241 -3 259 17
24 26 38 26 61 1 23 -26 13 -68 -21 -80 -14 -6 -31 -7 -36 -3 -6 3 -115 5
-242 4 -258 -2 -303 5 -387 62 -50 33 -75 66 -83 111 -5 30 -2 29 54 -20z"/>
<path d="M2585 2916 c-25 -37 -9 -80 32 -84 39 -4 55 17 51 65 -3 35 -6 38
-35 41 -25 3 -35 -2 -48 -22z"/>
<path d="M3091 3284 c0 -11 3 -14 6 -6 3 7 2 16 -1 19 -3 4 -6 -2 -5 -13z"/>
<path d="M2503 2593 c-7 -2 -13 -20 -13 -38 0 -36 28 -65 62 -65 19 0 48 36
48 62 0 37 -53 59 -97 41z"/>
<path d="M2678 3973 c12 -2 30 -2 40 0 9 3 -1 5 -23 4 -22 0 -30 -2 -17 -4z"/>
<path d="M2848 3953 c7 -3 16 -2 19 1 4 3 -2 6 -13 5 -11 0 -14 -3 -6 -6z"/>
<path d="M3212 3455 c0 -16 2 -22 5 -12 2 9 2 23 0 30 -3 6 -5 -1 -5 -18z"/>
<path d="M3213 3240 c0 -47 2 -66 4 -42 2 23 2 61 0 85 -2 23 -4 4 -4 -43z"/>
<path d="M2027 3242 c-21 -23 -22 -46 -1 -66 24 -25 71 -20 90 9 15 23 15 27
0 50 -20 30 -65 34 -89 7z"/>
<path d="M1782 3078 c-26 -26 -3 -88 31 -88 24 0 57 31 57 54 0 29 -18 46 -50
46 -14 0 -31 -5 -38 -12z"/>
<path d="M2288 3034 c-35 -19 -36 -47 -2 -73 33 -26 56 -27 76 -3 29 32 31 59
6 76 -28 20 -45 20 -80 0z"/>
<path d="M3210 3020 c0 -11 2 -20 4 -20 2 0 6 9 9 20 3 11 1 20 -4 20 -5 0 -9
-9 -9 -20z"/>
<path d="M1593 2818 c-17 -8 -23 -20 -23 -44 0 -28 5 -35 25 -40 51 -13 90 62
46 86 -23 12 -20 12 -48 -2z"/>
<path d="M3352 2790 c0 -19 2 -27 5 -17 2 9 2 25 0 35 -3 9 -5 1 -5 -18z"/>
<path d="M3431 2794 c0 -11 3 -14 6 -6 3 7 2 16 -1 19 -3 4 -6 -2 -5 -13z"/>
<path d="M3592 2714 c15 -15 31 -25 35 -20 12 12 -12 41 -38 44 l-24 4 27 -28z"/>
<path d="M3440 2527 c0 -2 6 -10 14 -16 11 -9 16 -9 22 1 4 7 4 10 -1 6 -4 -4
-14 -3 -22 3 -7 6 -13 9 -13 6z"/>
<path d="M2814 2484 c-13 -19 -15 -32 -8 -52 19 -56 104 -32 104 29 0 51 -68
67 -96 23z"/>
<path d="M3325 2484 c-20 -21 -16 -73 7 -88 11 -7 26 -7 45 0 22 7 29 16 31
44 5 53 -46 80 -83 44z"/>
<path d="M3476 2477 c3 -10 9 -15 12 -12 3 3 0 11 -7 18 -10 9 -11 8 -5 -6z"/>
<path d="M3481 2433 c-1 -12 4 -25 9 -28 12 -7 12 2 0 30 -8 19 -9 19 -9 -2z"/>
<path d="M3062 2288 c-22 -22 -14 -66 14 -85 24 -15 29 -15 53 -2 29 16 40 61
20 85 -14 17 -70 19 -87 2z"/>
<path d="M1160 2244 c0 -3 5 -25 11 -49 l11 -44 164 0 164 0 0 49 0 50 -175 0
c-96 0 -175 -3 -175 -6z"/>
<path d="M1570 2200 l0 -50 85 0 85 0 0 50 0 50 -85 0 -85 0 0 -50z"/>
<path d="M1219 2045 c9 -24 19 -46 21 -48 3 -2 116 -7 253 -11 l247 -7 0 56 0
55 -79 0 c-50 0 -89 -5 -107 -15 -25 -13 -29 -13 -37 0 -6 12 -37 15 -162 15
l-153 0 17 -45z"/>
<path d="M3921 2087 c2 -1 11 -8 20 -15 14 -10 18 -10 23 3 4 11 -1 15 -21 15
-14 0 -24 -1 -22 -3z"/>
<path d="M1274 1913 c14 -36 103 -176 168 -264 l67 -90 3 175 c2 97 2 181 0
186 -2 6 -54 10 -124 10 -110 0 -120 -1 -114 -17z"/>
<path d="M1575 1710 c0 -173 3 -212 15 -223 46 -43 143 -117 152 -117 8 0 9
25 5 83 -4 45 -7 169 -7 275 l0 192 -82 0 -83 0 0 -210z"/>
</g>
</svg>
